# xmcd
#
# Track frame offsets:
#	150
#	11634
#	20991
#	32513
#	44559
#	55101
#	64805
#	74096
#	86343
#	95104
#	104527
#	113674
#	125594
#	133747
#	140750
#	150895
#	162569
#	174257
#	184818
#	193747
#	205083
#	214013
#	225971
#	237669
#	248201
#	258383
#	270983
#	279114
#	291731
#	301822
#	310576
#	321977
#	332239
#	343427
#
# Disc length: 4755 seconds
#
# Revision: 0
# Processed by: cddbd v1.5.2PL0 Copyright (c) Steve Scherf et al.
# Submitted via: EasyCDDAExtractor 15.3.0.1
#
DISCID=06129122
DTITLE=Stonemans - All In The Family
DYEAR=1900
DGENRE=Country
TTITLE0=Cripple Creek
TTITLE1=Tupelo County Jail
TTITLE2=West Canterbury Subdivision Blues
TTITLE3=World Is Waiting For The Sunrise
TTITLE4=Mule Skinner Blues
TTITLE5=Got Leaving On Her Mind
TTITLE6=Cimarron
TTITLE7=Remember The Poor Tramp Has To Live
TTITLE8=Shady Grove
TTITLE9=Back To Nashville Tennessee
TTITLE10=Bottle Of Wine
TTITLE11=Filve Little Johnson Girls
TTITLE12=Goin' Back To Bowling Green
TTITLE13=Ride Ride Ride
TTITLE14=Katie Klein
TTITLE15=Three Cent Opera
TTITLE16=Dirty Old Egg Suckin' Dog
TTITLE17=Christopher Robin
TTITLE18=He's My Firend
TTITLE19=Message From Home
TTITLE20=My Dirty Lowdown Rotten Cotton Pickin' Little Darlin'
TTITLE21=Blue  Ridge Mountain Blues
TTITLE22=Spell Of The Freight Train
TTITLE23=You're Gonna Be Sorry
TTITLE24=Rolling In My Sweet Baby's Arms
TTITLE25=Love I Left Behind
TTITLE26=Baby O
TTITLE27=Bluegrass Ramble
TTITLE28=Baby Is Gone
TTITLE29=Tell It To My Heart Sometime
TTITLE30=Wrinkled Crinkled Wadded Dollar Bill
TTITLE31=Ruby Put Your Black Shoes On
TTITLE32=Travelin' Man
TTITLE33=God Is Alive And Well
EXTD=
EXTT0=
EXTT1=
EXTT2=
EXTT3=
EXTT4=
EXTT5=
EXTT6=
EXTT7=
EXTT8=
EXTT9=
EXTT10=
EXTT11=
EXTT12=
EXTT13=
EXTT14=
EXTT15=
EXTT16=
EXTT17=
EXTT18=
EXTT19=
EXTT20=
EXTT21=
EXTT22=
EXTT23=
EXTT24=
EXTT25=
EXTT26=
EXTT27=
EXTT28=
EXTT29=
EXTT30=
EXTT31=
EXTT32=
EXTT33=
PLAYORDER=
